# xmcd
#
# Track frame offsets:
#	150
#	4825
#	21830
#	43170
#	51882
#	75967
#	94612
#	94687
#	94762
#	94837
#	94912
#	94987
#	95062
#	95137
#	95212
#	95287
#	95362
#	95437
#	95512
#	95587
#	95662
#	95737
#	95812
#	95887
#	95962
#	96037
#	96112
#	96187
#	96262
#	96337
#	96412
#	96487
#	96562
#	96637
#	96712
#	96787
#	96862
#	96937
#	97012
#	97087
#	97162
#	97237
#	97312
#	97387
#	97462
#	97537
#	97612
#	97687
#	97762
#	97837
#	97912
#	97987
#	98062
#	98137
#	98212
#	98287
#	98362
#	98437
#	98512
#	98587
#	98662
#	98737
#	98812
#	98887
#	98962
#	99037
#	99112
#	99187
#	99262
#	99337
#	99412
#	99487
#	99562
#	99637
#	99712
#	99787
#	99862
#	99937
#	100012
#	100087
#	100162
#	100237
#	100312
#	100387
#	100462
#	100537
#	100612
#	100687
#	100762
#	100837
#	100912
#	100987
#	101062
#	101137
#	101212
#	101287
#	101362
#	101432
#	126172
#
# Disc length: 1989 seconds
# Revision: 23
# Processed by: cddbd v1.5.2PL0 Copyright (c) Steve Scherf et al.
# Submitted via: dBpowerAMP V12.0
#
DISCID=cc07c363,cf07c363
DTITLE=Nine Inch Nails / Broken (EP)
DYEAR=1992
DGENRE=Alternative
TTITLE0=Pinion
TTITLE1=Wish
TTITLE2=Last
TTITLE3=Help Me I Am in Hell
TTITLE4=Happiness in Slavery
TTITLE5=Gave Up
EXTD=
EXTT0=
EXTT1=
EXTT2=
EXTT3=
EXTT4=
EXTT5=
PLAYORDER=
.
